<svg xmlns="http://www.w3.org/2000/svg" width="116.006" height="20.974" viewBox="0 0 116.006 20.974"><path fill="#fff" d="M102.562 9.96c0-3.118 1.28-4.678 3.84-4.678s3.84 1.56 3.84 4.678c0 3.035-1.28 4.553-3.84 4.553s-3.84-1.517-3.84-4.553m3.84-6.694c-2.348 0-4.39.517-6.13 1.55C98.156 6.046 97.1 7.76 97.1 9.96c0 2.134 1.067 3.83 3.2 5.096 1.772.984 3.806 1.478 6.104 1.478 2.33 0 4.363-.51 6.104-1.526 2.132-1.247 3.198-2.93 3.198-5.046 0-2.2-1.058-3.913-3.174-5.145-1.773-1.034-3.816-1.55-6.13-1.55m-10.655 7.556h-3.938v2.115c0 .92-.624 1.378-1.87 1.378-.97 0-1.453-.425-1.453-1.28V5.753h6.743V4.004h-6.743V.707H85.8c-.262 1.198-.638 2.043-1.13 2.535-.624.607-1.65.91-3.077.91v1.602h1.747v6.152c0 2.92 2.182 4.38 6.547 4.38 1.443 0 2.674-.196 3.69-.59 1.445-.51 2.168-1.38 2.168-2.608v-2.265zm-15.8-7.188c-.575-.1-1.272-.148-2.093-.148-2.773 0-4.88.863-6.324 2.585h-.074V3.536l-7.85.566v1.674h1.574c.803 0 1.205.428 1.205 1.28v5.955c0 .855-.402 1.282-1.205 1.282h-1.6v1.648h10.83v-1.648h-1.7c-.803 0-1.206-.427-1.206-1.28v-1.723c0-1.494.18-2.593.54-3.3.527-.966 1.46-1.45 2.807-1.45.82 0 1.23.302 1.23.91v1.748h3.864V3.635zM62.57 9.863c0-2.167-1.05-3.88-3.15-5.145-1.74-.968-3.766-1.452-6.08-1.452-2.313 0-4.356.517-6.128 1.55-2.117 1.23-3.175 2.945-3.175 5.145 0 2.118 1.1 3.816 3.298 5.096 1.772.984 3.814 1.478 6.13 1.478 1.918 0 3.617-.272 5.093-.814 1.854-.705 3.167-1.77 3.938-3.198h-5.218c-.28.673-.805 1.19-1.576 1.55-.69.296-1.436.443-2.24.443-2.43 0-3.74-1.295-3.938-3.89h13.044v-.762zm-13.02-.936c.213-2.428 1.477-3.644 3.79-3.644 2.33 0 3.594 1.216 3.79 3.644h-7.58zm-16.86 5.39c-2.77 0-4.16-1.452-4.16-4.356 0-1.362.37-2.437 1.11-3.224.738-.818 1.755-1.23 3.05-1.23s2.29.427 2.98 1.28c.64.772.96 1.83.96 3.176 0 1.33-.32 2.362-.96 3.1-.69.835-1.683 1.254-2.98 1.254M35.055 3.39c-2.822 0-4.97.78-6.448 2.336h-.098V3.462c-1.723.1-3.236.185-4.54.26-1.306.073-2.418.143-3.336.207V5.7h1.625c.788 0 1.18.36 1.18 1.084v10.682c0 .853-.393 1.28-1.18 1.28h-1.574v1.698h10.68v-1.698h-1.6c-.82 0-1.23-.428-1.23-1.28v-3.004h.123c.558.608 1.443 1.11 2.658 1.502.542.164 1.067.287 1.576.37.508.082 1.017.122 1.525.122 2.313 0 4.144-.533 5.488-1.6 1.477-1.197 2.215-2.92 2.215-5.168 0-2.067-.673-3.642-2.018-4.725-1.215-1.05-2.897-1.574-5.046-1.574m-22.25 8.022c0 .87-.573 1.632-1.72 2.29-1.002.557-1.97.836-2.906.836-1.853 0-2.78-.59-2.78-1.772 0-.935.665-1.568 1.993-1.895.658-.13 1.69-.196 3.103-.196h2.313v.738zm6.326 2.83c-.82 0-1.23-.417-1.23-1.254V7.474c0-1.706-1.075-2.854-3.224-3.445-1.215-.346-2.97-.518-5.268-.518-5.61 0-8.417 1.32-8.417 3.962h5.096c0-1.443 1.108-2.165 3.322-2.165 2.265 0 3.396.836 3.396 2.51v1.156H7.908c-5.02 0-7.556 1.27-7.605 3.814-.032 2.495 1.928 3.742 5.883 3.742 1.28 0 2.485-.15 3.617-.444 1.56-.426 2.536-1.067 2.928-1.92h.1v1.772h7.31v-1.698h-1.01z"/></svg>